<svg width="56" height="56" viewBox="0 0 56 56" fill="none" xmlns="http://www.w3.org/2000/svg">
<g id="icon_mod">
<g id="Rectangle 8">
<rect x="1" y="1" width="54" height="54" rx="27" fill="#373635" fill-opacity="0.6"/>
<rect x="0.5" y="0.5" width="55" height="55" rx="27.5" stroke="#805454" stroke-opacity="0.6"/>
</g>
<path id="Subtract" fill-rule="evenodd" clip-rule="evenodd" d="M26.0005 21.25C26.0004 21.25 26.0004 21.25 26.0003 21.25C20.7876 21.25 16.1259 23.8646 12.8158 26.405C11.1518 27.6822 9.80663 28.958 8.87695 29.9149C8.4117 30.3937 8.04941 30.7938 7.80214 31.0758C7.67847 31.2169 7.5835 31.3284 7.51872 31.4056C7.48633 31.4442 7.46148 31.4743 7.44436 31.4951L7.4245 31.5194L7.41896 31.5262L7.4173 31.5282L7.41674 31.5289C7.41654 31.5292 7.41637 31.5294 8.00034 32L7.41637 31.5294L7.03711 32L7.41637 32.4706L8.00034 32C7.41637 32.4706 7.41654 32.4708 7.41674 32.4711L7.4173 32.4718L7.41896 32.4738L7.4245 32.4806L7.44436 32.5049C7.46148 32.5257 7.48633 32.5558 7.51872 32.5944C7.5835 32.6716 7.67847 32.7831 7.80214 32.9242C8.04941 33.2062 8.4117 33.6063 8.87695 34.0851C9.80663 35.042 11.1518 36.3178 12.8158 37.595C16.1259 40.1354 20.7876 42.75 26.0003 42.75C31.2131 42.75 35.8748 40.1354 39.1849 37.595C40.8489 36.3178 42.1941 35.042 43.1237 34.0851C43.589 33.6063 43.9513 33.2062 44.1986 32.9242C44.3222 32.7831 44.4172 32.6716 44.482 32.5944C44.5144 32.5558 44.5392 32.5257 44.5563 32.5049L44.5762 32.4806L44.5817 32.4738L44.5834 32.4718L44.5839 32.4711C44.5841 32.4708 44.5843 32.4706 44.0003 32L44.5843 32.4706L44.9636 32H44.0003H43.0137C42.7834 32.2607 42.4584 32.6174 42.0479 33.0399C41.1559 33.958 39.865 35.1822 38.2716 36.405C37.0282 37.3594 35.614 38.3026 34.0726 39.0996C35.7394 37.2059 36.7503 34.721 36.7503 32H35.2503C35.2503 37.1086 31.109 41.25 26.0003 41.25C20.8917 41.25 16.7503 37.1086 16.7503 32C16.7503 26.8914 20.8917 22.75 26.0003 22.75C26.0004 22.75 26.0004 22.75 26.0005 22.75V21.25ZM26.0005 26.25C26.0004 26.25 26.0004 26.25 26.0003 26.25C22.8247 26.25 20.2503 28.8244 20.2503 32C20.2503 35.1756 22.8247 37.75 26.0003 37.75C29.176 37.75 31.7503 35.1756 31.7503 32H30.2503C30.2503 34.3472 28.3476 36.25 26.0003 36.25C23.6531 36.25 21.7503 34.3472 21.7503 32C21.7503 29.6528 23.6531 27.75 26.0003 27.75C26.0004 27.75 26.0004 27.75 26.0005 27.75V26.25ZM9.95279 30.9601C9.54232 31.3826 9.21724 31.7393 8.98697 32C9.21724 32.2607 9.54232 32.6174 9.95279 33.0399C10.8448 33.958 12.1357 35.1822 13.7291 36.405C14.9725 37.3594 16.3867 38.3026 17.9281 39.0996C16.2613 37.2059 15.2503 34.721 15.2503 32C15.2503 29.279 16.2613 26.7941 17.9281 24.9004C16.3867 25.6974 14.9725 26.6406 13.7291 27.595C12.1357 28.8178 10.8448 30.042 9.95279 30.9601Z" fill="#BC9F6F"/>
<rect id="Rectangle 465" x="27" y="19" width="17" height="13" fill="#373635"/>
<path id="Subtract_2" fill-rule="evenodd" clip-rule="evenodd" d="M25 16C25 14.8954 25.8954 14 27 14H46C47.1046 14 48 14.8954 48 16V31C48 32.1046 47.1046 33 46 33H27C25.8954 33 25 32.1046 25 31V16ZM27 27H28V31H27V27ZM30 28H29V31H30V28ZM31 29H32V31H31V29ZM38 24H37V31H38V24ZM39 26H40V31H39V26ZM42 28H41V31H42V28ZM35 23H36V26H35V23ZM44 29H43V31H44V29ZM33 22H34V24H33V22ZM32 21H31V23H32V21ZM29 20H30V22H29V20ZM28 20H27V22H28V20Z" fill="#AA8B5B"/>
</g>
</svg>
