<svg width="56" height="56" viewBox="0 0 56 56" fill="none" xmlns="http://www.w3.org/2000/svg">
<g id="icon_next">
<g id="Rectangle 9">
<rect x="1" y="1" width="54" height="54" rx="27" fill="#373635" fill-opacity="0.6"/>
<rect x="0.5" y="0.5" width="55" height="55" rx="27.5" stroke="#805454" stroke-opacity="0.6"/>
</g>
<path id="&#229;&#137;&#141;&#232;&#191;&#155;" d="M9.44 37V23.9H18.16V37H15.64V34.58H11.96V37H9.44ZM9 22.52V20H12.72L12.28 18.76H15L15.44 20H20.56L21 18.76H23.72L23.28 20H27V22.52H9ZM11.96 32.16H15.64V30.54H11.96V32.16ZM11.96 28.12H15.64V26.38H11.96V28.12ZM19.8 33.06V24.44H22.3V33.06H19.8ZM21.3 37V34.44H24.04V23.58H26.6V37H21.3ZM37.4 36.8C34.96 36.8 33.44 36.54 32.14 35.88C32.02 36.24 31.92 36.62 31.8 37H29.04C30.32 33.44 30.82 30.68 30.96 27.3H28.6V24.7H33.56C33.56 28.02 33.36 30.58 32.76 33.36C33.96 34.02 35.34 34.28 37.4 34.28H47.2V36.8H37.4ZM29.42 19H32.12L33.5 23.34H30.8L29.42 19ZM34.08 29.06V26.54H36.94V25.92V23.22H34.66V20.7H36.94V18.8H39.48V20.7H42V18.8H44.54V20.7H46.42V23.22H44.54V26.54H47V29.06H44.54V33.56H42V29.06H39.28C39.06 30.68 38.6 32.08 37.84 33.56H34.72C35.76 32.06 36.36 30.58 36.66 29.06H34.08ZM39.48 26.54H42V23.22H39.48V25.92V26.54Z" fill="#C0A16B"/>
</g>
</svg>
