<svg width="56" height="56" viewBox="0 0 56 56" fill="none" xmlns="http://www.w3.org/2000/svg">
<g id="icon_pre">
<g id="Rectangle 9">
<rect x="1" y="1" width="54" height="54" rx="27" fill="#373635" fill-opacity="0.6"/>
<rect x="0.5" y="0.5" width="55" height="55" rx="27.5" stroke="#805454" stroke-opacity="0.6"/>
</g>
<path id="&#229;&#144;&#142;&#233;&#128;&#128;" d="M13.66 27.12H26.04V35.86H13.66V27.12ZM8.6 36C9.76 33 10.08 29.98 10.08 26.76V18.52C15.34 18.52 20.56 18.24 25.84 17.74V20.26C21.42 20.7 17.06 20.94 12.66 21V22.68H27V25.18H12.66V26.76C12.66 30.02 12.38 32.94 11.46 36H8.6ZM16.2 33.32H23.5V29.66H16.2V33.32ZM29.04 36C30.32 32.44 30.82 29.68 30.96 26.3H28.6V23.7H33.56C33.56 27.02 33.36 29.6 32.76 32.38C33.96 33.04 35.34 33.3 37.4 33.3H47.2V35.8H37.4C34.96 35.8 33.44 35.54 32.14 34.88C32.02 35.24 31.92 35.62 31.8 36H29.04ZM29.42 18H32.12L33.5 22.34H30.8L29.42 18ZM34.68 32.6V18.12H46.02V26.16H42.04C42.36 27.12 42.86 27.96 43.52 28.62L44.66 26.54H46.86L45.44 29.14H44.1C44.86 29.72 45.78 30.16 46.86 30.46V32.76C42.98 31.9 40.62 29.54 39.74 26.16H37.24V30.12H39.68V32.6H34.68ZM37.24 24.06H43.46V23.08H37.24V24.06ZM37.24 21.22H43.46V20.22H37.24V21.22Z" fill="#C0A16B"/>
</g>
</svg>
